<svg xmlns="http://www.w3.org/2000/svg" width="800" height="800" viewBox="0 0 800 800" role="img" aria-labelledby="title desc">
  <title id="title">Ant placeholder</title>
  <desc id="desc">Placeholder image for an ant product</desc>
  <rect width="800" height="800" fill="#f3f3f3" />
  <g fill="#333" opacity="0.9">
    <circle cx="400" cy="160" r="72" />
    <rect x="340" y="240" width="120" height="220" rx="60" />
    <path d="M300 340c-40-20-80 20-80 60s40 80 80 80 40-40 40-80-20-80-40-60z" />
    <path d="M500 340c40-20 80 20 80 60s-40 80-80 80-40-40-40-80 20-80 40-60z" />
    <path d="M320 560c20 30 70 30 80 0s60-80 40-120-80-40-120 0-20 90 0 120z" />
  </g>
  <text x="400" y="760" text-anchor="middle" font-family="Inter, sans-serif" font-size="48" fill="#777">ANT PHOTO</text>
</svg>